<svg width="1920" height="118" viewBox="0 0 1920 118"  xmlns="http://www.w3.org/2000/svg">
<path d="M1920 117.25V21.87C1918.18 21.76 1916.37 21.58 1914.56 21.52C1909.49 19.35 1904.43 23.2 1899.29 22.15C1895.56 20.17 1891.08 22.69 1887.42 21.93C1884.84 21.31 1883.41 17.58 1880.59 19.52C1875.53 20.97 1870.89 19.44 1866.19 18.63C1859.69 16.29 1847.99 20.13 1843.78 15.94C1843.95 17.17 1843.35 15.23 1842.01 12.03C1841.21 9.6 1840.41 8.28 1839.61 9.68C1838.34 11.46 1837.95 8.84 1836.5 6.69C1833.18 0.7 1827.69 1.78 1823.75 3.08C1821.6 1.15 1819.19 4.2 1817.07 3.2C1814.29 4.21 1812.17 2.82 1809.1 1.91C1803.91 1.89 1798.71 -0.04 1793.52 1.94C1788.33 2.65 1783.13 -0.36 1777.94 1.9C1774.13 2.21 1770.33 1.07 1766.53 1.9C1764.38 0.54 1762.26 0 1760.19 0C1755.22 0 1750.55 3.13 1746.38 5.66C1743.6 9.68 1742.41 10.04 1738.73 9.57C1737.56 12.85 1736.2 7.52 1735.05 9.36C1733.72 6.24 1732.48 11.73 1731.32 11.44C1729.53 10.91 1727.7 18.41 1725.81 12.27C1722.78 16.26 1720.58 13.02 1717.57 15.63C1713.75 15.83 1709.64 10.29 1705.91 16.05C1702.18 17.59 1699.39 22.95 1695.63 21.68C1693.53 23.6 1691.28 19.91 1689.18 23.03C1687.05 24.15 1685.13 27.37 1683.15 25.72C1681.05 26.23 1678.8 25.32 1676.66 25.94C1673.91 26.99 1671.17 28.72 1668.42 25.94C1664.71 30.49 1661.92 27.59 1659.04 24.4C1656.65 22.9 1658.09 21.64 1655.02 22.09C1653.09 23.07 1650.88 19.73 1648.93 22.15C1645.06 22.09 1641.02 26.32 1637.19 22.09C1634.13 27.71 1634.11 19.86 1631.56 24.4C1630.01 28.82 1628.9 25.36 1626.87 26.06C1624.02 25.56 1622.08 23.5 1618.86 24.68C1615.6 21.49 1611.58 26.07 1608.47 24.9C1606.65 27.76 1605.15 25.03 1603.4 27.89C1600.72 29.04 1600.38 27.2 1598.06 30.62C1594.15 33.39 1591.18 36.9 1586.02 34.59C1582.54 32.42 1580.25 31.77 1576.52 32.14C1572.9 31.99 1569.16 27.4 1565.52 32.27C1562.42 33.6 1560.59 33.56 1557.67 33.62C1555.56 38.29 1552.12 38.38 1550.42 32.43C1548.71 28.82 1548.82 28.81 1547.18 27.33C1545.54 30.44 1541.35 23.62 1539.39 27.21C1534.54 25.42 1529.57 28.29 1524.62 27C1519.67 21.79 1514.75 27 1510 28.19C1506.51 27.46 1502.61 29.33 1499.41 27.33C1497.07 29.61 1494.65 20.43 1492.29 22.53C1489.99 19.47 1489.99 20.64 1488.4 23.85C1485.69 26.5 1484.02 26.59 1480.68 26.31C1477.39 24.91 1474.21 24.41 1470.53 24.9C1467.18 28.09 1464.54 29.81 1461.86 31C1458.26 36.04 1454.99 32.4 1450.96 33.64C1447.99 33.52 1444.9 37.34 1441.68 34.58C1441.52 34.15 1439.26 29.8 1438.95 31.98C1437.52 29.53 1436.44 31.16 1434.83 28.44C1429.66 30.4 1423.99 28.97 1418.29 26.05C1412.59 26.61 1406.86 30.31 1401.59 28.53C1397.67 28.31 1393.69 26.97 1389.76 28.47C1385.67 25.1 1380.75 23.84 1376.87 28.26C1374.55 26.92 1373.35 26.5 1370.53 25.87C1367.63 27.29 1367.77 28.29 1365.11 24.68C1359.86 24.22 1354.28 22.34 1348.78 23.41C1344.38 20.04 1339.34 21.8 1334.48 23.05C1329.62 27.05 1324.95 23.83 1321.29 26.86C1319.17 26.05 1317.62 31.12 1315.25 29.7C1312.7 31.41 1311.59 26.21 1309.2 33.29C1305.18 36.78 1301.6 38.05 1296.79 36.08C1293.48 33.37 1290.18 31.36 1286.87 36.06C1283.18 37.52 1276.09 36.99 1274.07 34.64C1272.91 32.47 1273.83 31.01 1271.72 28.92C1270.05 26.87 1267.74 26.65 1265.91 28.51C1262.86 27.57 1260.35 31.77 1257.36 27.18C1251.95 24.28 1246.38 28.3 1241.07 28.63C1237.92 26.74 1238.06 28.49 1235.23 25.18C1233.35 24.51 1231.81 25.44 1229.86 24.69C1222.13 28.73 1214.36 26.43 1206.63 24.68C1202.76 23.99 1198 28.51 1194.77 23.51C1193.32 21.27 1192.08 20.15 1190.05 19.62C1186.76 17.78 1186.04 21.56 1183.31 24.31C1181.01 27.76 1179.02 24.7 1176.81 23.09C1174.18 18.97 1170.76 21.38 1168.3 21.23C1167.31 16.61 1166.06 18.66 1165.42 18.57C1164.03 18.6 1162.73 20.7 1161.33 18.4C1158.41 20.32 1157.18 15.79 1154.09 15.79C1151.64 12.65 1148.59 15.61 1146.22 15.63C1144.28 10.82 1143.27 10.58 1141.6 12.28C1136.32 8.94 1127.52 10.31 1121.55 10.76C1118.48 9.35 1115.19 13.96 1112.14 10.63C1108.56 12.73 1105.95 15.18 1102.51 13.42C1099.18 16.16 1095.47 7.33 1092.22 13.49C1087.85 12.88 1085.28 19.4 1080.68 20.81C1074.93 22.59 1069.43 23.71 1063.41 24.77C1060.67 26.11 1058.59 29.63 1055.85 25.94C1049.92 29.9 1044.82 27.36 1039.05 26.23C1032.72 24.63 1027.29 26.86 1021.74 31.8C1018.22 32.57 1014.48 32.53 1010.67 33C1011.01 32.27 1011.21 31.78 1011.21 31.63C1008.94 32.46 1006.69 32.7 1004.46 32.72C1002.72 32.16 1000.99 32.19 999.27 32.47C998.15 32.38 997.04 32.3 995.92 32.26C990.86 30.1 985.8 33.94 980.66 32.89C976.93 30.91 972.45 33.44 968.79 32.68C966.21 32.05 964.78 28.32 961.96 30.27C958.87 31.15 955.93 30.92 953.04 30.42C951.86 28.95 950.65 27.41 949.28 26.84C945.93 23.63 942.45 24.85 939.01 26.68C935.74 23.94 933.5 27.87 929.95 28.57C929.95 28.58 929.94 28.58 929.93 28.59C927.96 28.35 926.28 27.81 925.15 26.69C925.32 27.91 924.72 25.97 923.38 22.77C922.58 20.35 921.78 19.03 920.98 20.43C919.71 22.21 919.32 19.59 917.87 17.44C914.55 11.45 909.06 12.53 905.12 13.82C902.97 11.89 900.56 14.95 898.44 13.94C895.66 14.96 893.54 13.57 890.47 12.65C885.28 12.65 880.08 10.7 874.89 12.68C869.7 13.4 864.5 10.39 859.31 12.65C855.5 12.95 851.7 11.81 847.9 12.65C840.58 8.03 833.66 12.81 827.75 16.41C824.97 20.42 823.78 20.78 820.1 20.31C818.93 23.59 817.57 18.26 816.42 20.11C815.09 16.99 813.85 22.47 812.69 22.18C810.9 21.65 809.07 29.15 807.18 23.02C804.15 27.01 801.95 23.77 798.94 26.38C795.12 26.58 791.01 21.03 787.28 26.8C783.55 28.33 780.75 33.69 777 32.43C774.9 34.35 772.65 30.66 770.55 33.77C768.42 34.9 766.5 38.12 764.52 36.47C762.42 36.97 760.17 36.06 758.03 36.68C755.28 37.74 752.54 39.46 749.79 36.69C746.08 41.23 743.29 38.33 740.41 35.14C738.02 33.65 739.46 32.38 736.39 32.84C734.46 33.82 732.25 30.47 730.3 32.89C726.43 32.83 722.39 37.06 718.56 32.84C715.5 38.45 715.48 30.6 712.93 35.14C711.38 39.57 710.27 36.1 708.24 36.81C705.39 36.31 703.45 34.24 700.23 35.43C696.97 32.23 692.95 36.82 689.84 35.65C688.02 38.5 686.52 35.77 684.77 38.63C682.09 39.78 681.75 37.95 679.43 41.36C675.52 44.13 672.55 47.65 667.39 45.34C663.91 43.17 661.62 42.51 657.89 42.88C654.27 42.74 650.53 38.15 646.89 43.01C643.79 44.34 641.96 44.31 639.04 44.37C636.93 49.04 633.49 49.12 631.79 43.17C630.08 39.57 630.19 39.55 628.55 38.08C626.91 41.18 622.72 34.37 620.76 37.95C615.91 36.17 610.94 39.03 605.99 37.74C601.04 32.54 596.12 37.74 591.37 38.94C587.88 38.21 583.98 40.07 580.78 38.08C578.44 40.35 576.02 31.17 573.66 33.27C571.36 30.21 571.36 31.38 569.77 34.6C567.06 37.25 565.39 37.34 562.05 37.06C558.76 35.65 555.57 35.15 551.9 35.65C548.55 38.83 545.91 40.56 543.23 41.74C539.63 46.79 536.36 43.14 532.33 44.38C529.36 44.27 526.27 48.08 523.05 45.32C522.89 44.89 520.63 40.55 520.32 42.73C518.89 40.27 517.81 41.9 516.2 39.19C511.03 41.15 505.36 39.71 499.66 36.79C493.96 37.36 488.23 41.06 482.96 39.28C479.04 39.05 475.06 37.72 471.13 39.22C467.04 35.85 462.11 34.59 458.24 39C455.92 37.67 454.72 37.24 451.9 36.62C449 38.04 449.14 39.04 446.48 35.42C441.23 34.96 435.65 33.08 430.15 34.16C425.75 30.79 420.71 32.54 415.85 33.79C410.99 37.79 406.32 34.57 402.66 37.61C400.54 36.79 398.99 41.86 396.62 40.45C394.07 42.15 392.96 36.95 390.57 44.03C386.55 47.52 382.97 48.8 378.16 46.82C374.85 44.11 371.55 42.11 368.24 46.81C364.55 48.26 357.46 47.73 355.44 45.39C354.28 43.22 355.2 41.76 353.09 39.66C351.42 37.61 349.11 37.39 347.28 39.26C344.23 38.32 341.72 42.51 338.73 37.93C333.32 35.02 327.75 39.05 322.44 39.37C319.29 37.49 319.43 39.24 316.6 35.92C314.72 35.25 313.18 36.19 311.23 35.43C303.5 39.47 295.73 37.17 288 35.42C284.13 34.74 279.37 39.25 276.14 34.25C274.69 32.01 273.45 30.89 271.42 30.36C268.13 28.53 267.41 32.31 264.68 35.06C262.38 38.5 260.39 35.44 258.18 33.83C255.55 29.72 252.13 32.12 249.67 31.97C248.68 27.36 247.43 29.41 246.79 29.32C245.4 29.35 244.1 31.44 242.7 29.15C239.78 31.06 238.55 26.53 235.46 26.54C233.01 23.4 229.96 26.35 227.59 26.38C225.65 21.56 224.64 21.32 222.97 23.02C217.69 19.69 208.89 21.06 202.92 21.51C199.85 20.1 196.56 24.7 193.51 21.37C189.93 23.47 187.32 25.92 183.88 24.17C180.55 26.91 176.84 18.08 173.59 24.23C169.21 23.62 166.65 30.15 162.05 31.55C156.3 33.33 150.8 34.45 144.78 35.52C142.04 36.85 139.96 40.38 137.22 36.68C131.29 40.65 126.19 38.1 120.42 36.97C114.09 35.37 108.66 37.61 103.11 42.55C98.35 43.58 93.2 43.14 87.99 44.48C82.78 41.14 77.52 44.44 72.55 45.08C67.11 47.72 59.66 52.02 54.87 47.88C50.22 43.84 46.6 43.19 40.74 43.07C36.76 47.47 34.28 39.08 30.65 37.59C27.3 34.38 23.82 35.6 20.38 37.43C17.11 34.68 14.87 38.62 11.32 39.31C9.1 41.63 4 38.42 1.75 39.37C1.16 39.3 0.58 39.14 0 38.91V117.25H1920Z" fill="#FFF7E7"/>
</svg>
