<svg width="127" height="127" viewBox="0 0 127 127" fill="none" xmlns="http://www.w3.org/2000/svg">
<path d="M31.5661 13.5667C48.9999 -3.86708 77.2657 -3.86708 94.6996 13.5667C112.133 31.0006 112.133 59.2664 94.6996 76.7002L63.1328 108.267L31.5661 76.7002C14.1323 59.2664 14.1322 31.0006 31.5661 13.5667Z" fill="#FFAA00"/>
<path d="M65.371 63.6405C64.4792 64.5468 63.3332 64.9992 61.9315 64.9992C60.5298 64.9992 59.3797 64.546 58.4829 63.6405C57.5853 62.7341 57.137 61.5495 57.137 60.085C57.137 58.6205 57.5853 57.4393 58.4829 56.5387C59.3805 55.639 60.5298 55.1892 61.9315 55.1892C63.3332 55.1892 64.48 55.639 65.371 56.5387C66.2629 57.4384 66.708 58.6205 66.708 60.085C66.708 61.5495 66.2621 62.7341 65.371 63.6405ZM59.9633 63.4897C60.4732 64.2344 61.1282 64.606 61.9266 64.606C62.725 64.606 63.3767 64.2336 63.8808 63.4897C64.3849 62.7458 64.6374 61.6103 64.6374 60.0858C64.6374 58.5614 64.3849 57.4442 63.8808 56.6995C63.3767 55.9556 62.725 55.5832 61.9266 55.5832C61.1282 55.5832 60.4732 55.9556 59.9633 56.6995C59.4527 57.4442 59.1977 58.5722 59.1977 60.0858C59.1977 61.5995 59.4527 62.7458 59.9633 63.4897Z" fill="white"/>
<path d="M72.7895 55.1892C73.3174 55.1892 73.7797 55.2717 74.1765 55.4366L73.2313 58.1548H73.0871L72.0337 55.9406C71.223 56.1055 70.5361 56.6762 69.9713 57.6517V63.8929L71.7001 64.6251V64.7717H66.7744V64.6251L68.1253 63.8929V56.2971L66.7744 55.5649V55.4183H69.6918L69.9533 57.1202C70.7279 55.8331 71.673 55.1892 72.7895 55.1892Z" fill="white"/>
<path d="M76.4856 59.9392C76.4979 61.1655 76.8086 62.1276 77.4176 62.8266C78.0267 63.5255 78.8087 63.8745 79.7637 63.8745C81.2162 63.8745 82.2999 63.2123 83.0147 61.8886L83.2942 61.9985C82.9885 62.8957 82.4811 63.6196 81.772 64.172C81.0638 64.7243 80.1752 65 79.1063 65C77.7914 65 76.6971 64.5626 75.8241 63.6871C74.9511 62.8116 74.5142 61.6661 74.5142 60.2508C74.5142 58.713 74.9429 57.4859 75.802 56.567C76.6602 55.649 77.7742 55.19 79.1423 55.19C80.5104 55.19 81.4654 55.5682 82.204 56.3246C82.9426 57.081 83.3114 58.1273 83.3114 59.4636V59.9392H76.4856ZM76.4856 59.5644H81.4294V59.4086C81.4294 56.8461 80.667 55.5649 79.1423 55.5649C78.3915 55.5649 77.7701 55.9189 77.2783 56.6262C76.7856 57.3343 76.5217 58.3131 76.4856 59.5635V59.5644Z" fill="white"/>
<path d="M55.9041 52.6451V63.7738L57.4345 64.6243V64.7701H52.4186V64.6243L53.931 63.7738V53.1116L49.4652 62.181H49.0602L44.1977 53.3415V63.1423L46.1511 64.6243V64.7701H42V64.6243L43.7649 63.1423V52.7009L42.1803 51.8028V51.6487H47.1954V51.8028L45.942 52.5126L50.0415 59.9751L53.7294 52.5459L52.4186 51.8028V51.6487H57.4345V51.8028L55.9041 52.6451Z" fill="white"/>
<path d="M42.1779 39.128V38.9814L43.6821 38.13V26.998L42.1779 26.1558V26H47.1954V26.1558L45.6641 26.998V32.1704H53.9515V26.998L52.4203 26.1558V26H57.4378V26.1558L55.9246 26.998V38.13L57.4378 38.9814V39.128H52.4203V38.9814L53.9515 38.13V32.5819H45.6641V38.13L47.1954 38.9814V39.128H42.1779Z" fill="white"/>
<path d="M59.4994 34.2938C59.5117 35.5209 59.8224 36.4831 60.4314 37.182C61.0405 37.8809 61.8233 38.23 62.7783 38.23C64.2316 38.23 65.3153 37.5677 66.0301 36.2432L66.3096 36.3531C66.003 37.2503 65.4956 37.9751 64.7874 38.5274C64.0783 39.0797 63.1898 39.3554 62.1208 39.3554C60.806 39.3554 59.7109 38.9173 58.8371 38.0417C57.9632 37.1662 57.5263 36.0199 57.5263 34.6037C57.5263 33.0659 57.9559 31.838 58.8141 30.9192C59.6732 30.0003 60.7872 29.5413 62.1561 29.5413C63.525 29.5413 64.48 29.9195 65.2186 30.6767C65.9571 31.4331 66.3268 32.4803 66.3268 33.8165V34.293H59.4986L59.4994 34.2938ZM59.4994 33.9181H64.4448V33.7623C64.4448 31.1991 63.6824 29.9178 62.1569 29.9178C61.4061 29.9178 60.7847 30.2719 60.2921 30.98C59.7994 31.6881 59.5355 32.6677 59.4994 33.919V33.9181Z" fill="white"/>
<path d="M72.7985 29.543C73.3272 29.543 73.7896 29.6254 74.1855 29.7904L73.2395 32.5094H73.0953L72.0411 30.2944C71.2304 30.4593 70.5427 31.0299 69.9779 32.0063V38.25L71.7075 38.9822V39.1288H66.7801V38.9822L68.131 38.25V30.6509L66.7801 29.9187V29.772H69.6992L69.9607 31.4748C70.7353 30.1869 71.6812 29.543 72.7985 29.543Z" fill="white"/>
<path d="M80.0276 29.543C81.1088 29.543 82.0409 29.9536 82.8245 30.7742C83.6082 31.5948 84 32.7744 84 34.3122C84 35.85 83.5574 37.0904 82.6712 37.9967C81.7851 38.9031 80.7449 39.3563 79.5497 39.3563C78.4808 39.3563 77.6127 38.9931 76.9463 38.2666L75.3429 39.3563H75.1987V26.9247L73.8478 26.1558V26H77.0455V31.0258C77.766 30.037 78.7603 29.543 80.0268 29.543H80.0276ZM78.9374 38.679C79.862 38.679 80.6039 38.325 81.1621 37.6169C81.7204 36.9088 81.9999 35.85 81.9999 34.4404C81.9999 33.0309 81.7449 32.0738 81.2343 31.3873C80.7236 30.7009 80.0391 30.3577 79.18 30.3577C78.321 30.3577 77.6095 30.73 77.0455 31.4748V37.8918C77.5562 38.4166 78.1865 38.679 78.9374 38.679Z" fill="white"/>
<path d="M68.0843 45.6841H84V45.3734H65.1464V45.4967L66.249 46.6421C66.2162 47.1361 65.9776 47.9117 65.744 48.3424L61.8971 44.8011C61.7413 44.6578 60.8314 43.8006 60.8732 42.6426C60.9118 41.5988 61.8421 41.1873 62.079 41.1873C62.3422 41.1873 62.8217 41.2381 63.1455 41.4414C63.1455 41.4414 64.116 43.6598 64.148 43.7181H64.2456C64.2816 43.609 64.9431 41.8338 65.0169 41.6655C64.8186 41.5755 63.5013 40.9141 62.0823 40.8841C60.6667 40.8541 59.4125 41.4447 59.4125 42.9884C59.4125 44.532 60.6167 45.5192 60.9355 45.8024L65.0817 49.6186C64.9751 49.7677 64.1529 51.1206 62.4938 51.1206C60.8347 51.1206 60.0338 49.8927 60.0338 48.4615C60.0338 47.476 60.4076 46.9062 60.8282 46.5546C60.8896 46.5047 60.9519 46.4555 61.0208 46.4089C61.0298 46.403 61.038 46.3955 61.047 46.3897L60.4945 45.8807C60.1396 45.5533 59.6773 45.3725 59.1977 45.3725H42.1779V45.6833H59.119C59.5436 45.6833 59.9519 45.8465 60.2625 46.1406L60.2962 46.1723C59.5084 46.4488 58.4518 47.0978 58.4518 48.5706C58.4518 50.6732 60.0347 51.7337 62.1094 51.7337C64.1841 51.7337 65.0768 50.5116 65.4194 49.9285L67.199 51.5671H69.0967V51.4288L66.0776 48.6489C66.3875 47.9883 66.5924 46.897 66.6244 46.6279L68.0851 45.6833L68.0843 45.6841Z" fill="white"/>
</svg>
