<svg width="79" height="79" viewBox="0 0 79 79" fill="none" xmlns="http://www.w3.org/2000/svg">
<path opacity="0.6" d="M39.49 0C17.6794 0 0 17.6794 0 39.49C0 61.3006 17.6794 78.98 39.49 78.98C61.3006 78.98 78.98 61.2991 78.98 39.49C78.98 17.6809 61.2991 0 39.49 0ZM39.49 71.1101C22.0254 71.1101 7.86833 56.953 7.86833 39.49C7.86833 22.027 22.0254 7.86833 39.49 7.86833C56.9546 7.86833 71.1101 22.0254 71.1101 39.49C71.1101 56.9546 56.953 71.1101 39.49 71.1101Z" fill="#FFAA00"/>
<path d="M35.394 44.3777L23.3048 32.2885L17.9248 37.667L35.394 55.1362L60.8845 29.6456L55.5045 24.2656L35.394 44.3777Z" fill="#FFAA00"/>
</svg>
