<svg width="29" height="21" viewBox="0 0 29 21" fill="none" xmlns="http://www.w3.org/2000/svg">
<path d="M0 14.6994C0.147559 14.1173 0.316116 13.5451 0.687284 13.0611C1.36549 12.1774 2.24687 11.676 3.34107 11.6725C7.75819 11.659 12.1753 11.6578 16.5924 11.6707C18.6123 11.6765 20.131 13.5077 19.9216 15.6392C19.6548 18.3529 17.8382 20.4003 15.2366 20.9117C14.8745 20.983 14.5073 21.0006 14.1378 21C11.3632 20.9977 8.58849 21 5.81325 20.9982C2.80191 20.9971 0.502267 18.9561 0.0465378 15.8841C0.0397274 15.8374 0.0158909 15.7935 0 15.7485C0 15.3984 0 15.0489 0 14.6994ZM9.96987 13.9992C7.79905 13.9992 5.62823 13.9975 3.45742 14.0004C2.73381 14.0016 2.25765 14.5095 2.26673 15.2558C2.2883 17.0613 3.77978 18.644 5.53629 18.658C8.49031 18.6814 11.4449 18.6802 14.3989 18.658C16.1134 18.6452 17.5833 17.1384 17.6685 15.3751C17.7105 14.5065 17.2434 13.9998 16.3978 13.9998C14.2553 13.9992 12.1123 13.9992 9.96987 13.9992Z" fill="white"/>
<path d="M2.0392 5.72195C2.0392 4.99312 2.03693 4.2637 2.0392 3.53487C2.04714 1.56579 3.55735 -0.00175194 5.44327 1.46954e-06C7.32635 0.00175488 8.82861 1.57105 8.83599 3.54539C8.83882 4.28416 8.83428 5.02292 8.83712 5.76169C8.83996 6.47416 9.31669 6.99492 9.96197 6.99901C10.6084 7.00252 11.0846 6.49228 11.1027 5.77689C11.151 3.84054 12.668 2.31976 14.538 2.33378C16.3813 2.34723 17.8842 3.90659 17.8984 5.8254C17.904 6.58346 17.9023 7.34151 17.8984 8.09957C17.895 8.81262 17.4171 9.33046 16.7695 9.33221C16.1226 9.33396 15.6379 8.81437 15.6345 8.10658C15.6305 7.37775 15.6356 6.64833 15.6328 5.9195C15.6299 5.19885 15.1668 4.67867 14.5227 4.66698C13.8655 4.65471 13.3853 5.16787 13.3666 5.90197C13.3184 7.83071 11.79 9.35033 9.91827 9.33163C8.07776 9.31292 6.58231 7.7483 6.57153 5.82657C6.56755 5.07845 6.57323 4.32974 6.56982 3.58104C6.56698 2.85045 6.08572 2.32736 5.42738 2.3332C4.78266 2.33846 4.30707 2.85922 4.30593 3.57286C4.30309 5.09891 4.3082 6.62495 4.30252 8.151C4.30082 8.64195 4.07892 9.009 3.64532 9.21941C3.23216 9.41988 2.83261 9.3626 2.4745 9.07914C2.17995 8.84652 2.03977 8.52506 2.03977 8.14106C2.03977 7.3345 2.03977 6.52735 2.03977 5.72078L2.0392 5.72195Z" fill="white"/>
<path d="M25.6107 16.3331C24.8751 16.3331 24.1396 16.3354 23.4047 16.3325C22.7128 16.3296 22.2089 15.8398 22.2049 15.1753C22.2009 14.4973 22.7077 14.0022 23.416 14.0011C24.8774 13.9987 26.3388 13.9987 27.8002 14.0011C28.4926 14.0022 28.9954 14.4914 29 15.1577C29.0045 15.8351 28.4971 16.3302 27.7889 16.3325C27.063 16.3354 26.3371 16.3331 25.6107 16.3331Z" fill="white"/>
</svg>
