<svg width="79" height="80" viewBox="0 0 79 80" fill="none" xmlns="http://www.w3.org/2000/svg">
<path opacity="0.6" d="M39.5095 0.445312C17.6989 0.445312 0.0195312 18.1247 0.0195312 39.9353C0.0195312 61.7459 17.6989 79.4253 39.5095 79.4253C61.3202 79.4253 78.9995 61.7444 78.9995 39.9353C78.9995 18.1263 61.3186 0.445312 39.5095 0.445312ZM39.5095 71.5555C22.045 71.5555 7.88786 57.3983 7.88786 39.9353C7.88786 22.4723 22.045 8.31364 39.5095 8.31364C56.9741 8.31364 71.1297 22.4708 71.1297 39.9353C71.1297 57.3999 56.9726 71.5555 39.5095 71.5555Z" fill="#DC3545"/>
<path d="M51.3639 22.6992L39.5097 34.5535L27.6554 22.6992L22.2754 28.0792L34.1297 39.9335L22.2754 51.7878L27.6554 57.1662L39.5097 45.312L51.3639 57.1662L56.7439 51.7878L44.8897 39.9335L56.7439 28.0792L51.3639 22.6992Z" fill="#DC3545"/>
</svg>
