<svg width="20" height="20" viewBox="0 0 20 20" fill="none" xmlns="http://www.w3.org/2000/svg">
<path d="M12.2931 0C12.8463 0 13.3994 0.0285633 13.9467 0.0514139C14.3056 0.0628392 14.6646 0.114253 15 0.148529L14.9765 3.37047H14.7117C14.3468 3.37047 13.982 3.37047 13.6171 3.37047C13.3465 3.37047 13.0699 3.37047 12.7992 3.38189C11.9224 3.41045 11.2751 3.73036 11.228 4.79863C11.1986 5.56412 11.181 7.26078 11.181 7.35219C11.228 7.35219 12.0931 7.35219 12.9699 7.35219C13.4053 7.35219 13.8349 7.35219 14.1291 7.35219H14.8411C14.6646 8.58612 14.4998 9.77435 14.3233 10.9683H11.181L11.1104 20H7.25013L7.32075 10.9512H4.16666L4.19609 7.35219H7.36782V7.08369C7.37371 6.35818 7.36782 5.63268 7.39725 4.90717C7.40901 4.45016 7.43255 3.98172 7.51494 3.53042C7.72678 2.42788 8.25638 1.50243 9.20378 0.845473C10.0335 0.268495 10.9809 0.0228506 11.9813 0C12.0813 0 12.1872 0 12.2873 0H12.2931Z" fill="white"/>
</svg>
