<svg width="20" height="20" viewBox="0 0 20 20" fill="none" xmlns="http://www.w3.org/2000/svg">
<path d="M10 0C4.47768 0 0 4.47768 0 10C0 15.5223 4.47768 20 10 20C15.5223 20 20 15.5223 20 10C20 4.47768 15.5223 0 10 0ZM1.78661 10.0009C1.78661 9.5317 1.82679 9.06652 1.90536 8.61027L2.83482 10.3179C2.84911 10.3446 2.87054 10.3665 2.89643 10.3821L4.57277 11.3884C4.61696 11.4147 4.64643 11.4594 4.65357 11.5103L4.98929 13.9451C4.99598 13.9924 5.02188 14.0344 5.06116 14.0616L6.3692 14.9607C6.40714 14.9866 6.43348 15.0263 6.44286 15.0714L6.98438 17.6424C3.94062 16.4397 1.78705 13.4719 1.78705 10.0004L1.78661 10.0009ZM10.0018 18.2143C9.64018 18.2143 9.28393 18.1906 8.93482 18.1455L9.27098 16.5871C9.28036 16.5433 9.3058 16.5049 9.34241 16.479L11.3513 15.0549C11.3987 15.0214 11.4268 14.967 11.4268 14.9089V12.2321C11.4272 12.1763 11.4018 12.1237 11.3576 12.0893L8.61964 10.0357C8.58884 10.0125 8.55134 10 8.5125 10H7.21339C7.1683 10 7.12545 9.98214 7.09375 9.95045L6.48125 9.33795C6.44777 9.30446 6.40223 9.28571 6.35491 9.28571H3.98036C3.88705 9.28571 3.81116 9.20982 3.81116 9.11652C3.81116 9.07143 3.82902 9.02857 3.86071 8.99687L4.23661 8.62098C4.2683 8.58929 4.31116 8.57143 4.35625 8.57143H5.80134C5.96116 8.57143 6.10179 8.46518 6.14509 8.31116L6.45268 7.21741C6.46607 7.17009 6.49821 7.12991 6.54196 7.10714L7.7683 6.47589C7.82455 6.44688 7.85982 6.38884 7.85982 6.32545V5.76741C7.85982 5.73259 7.87054 5.69911 7.89018 5.67054L8.54196 4.73214C8.56161 4.70402 8.58929 4.68259 8.62143 4.67054L9.53348 4.32812C9.59955 4.30357 9.6433 4.24018 9.6433 4.16964V3.66071C9.6433 3.60402 9.61518 3.55089 9.56786 3.51964L8.65357 2.91161C8.60223 2.87813 8.53705 2.87411 8.48259 2.90179L7.23795 3.52411C7.17991 3.55268 7.11027 3.54554 7.05938 3.5058L6.4692 3.03929C6.39598 2.98036 6.38482 2.87366 6.4433 2.80089C6.45223 2.78973 6.4625 2.77991 6.47366 2.77143L6.95312 2.4183C6.97946 2.39911 6.99777 2.37366 7.00938 2.34554C7.20089 2.27098 7.39509 2.20312 7.59152 2.14286H8.57187L9.6433 2.67857L10.5808 2.14286L10.5063 1.80179C11.7469 1.87723 12.9129 2.22723 13.9446 2.79286L13.6411 3.42813C13.6022 3.50982 13.6308 3.60804 13.7076 3.65625L14.1746 3.94821C14.2411 3.98973 14.3268 3.98259 14.3862 3.93125L14.9487 3.44241C15.1357 3.58393 15.3165 3.73304 15.4911 3.88973L15.05 4.24598C15.0183 4.27143 14.9786 4.28571 14.9379 4.28571H14.2714C14.2241 4.28571 14.1786 4.30446 14.1451 4.33795L13.6094 4.87366C13.5397 4.9433 13.5397 5.05625 13.6094 5.12634L14.1451 5.66205C14.1786 5.69554 14.2241 5.71429 14.2714 5.71429H17.0103C17.2777 6.15045 17.5049 6.61339 17.6879 7.09821H17.2121C17.1674 7.09821 17.1237 7.08616 17.0853 7.06295L16.0862 6.46384C16.0478 6.44062 16.004 6.42857 15.9594 6.42857H14.3612C14.3125 6.42857 14.2647 6.44286 14.2246 6.47009L12.2536 7.78393C12.1844 7.82991 12.1429 7.90804 12.1438 7.99107V9.85446C12.1438 9.94554 12.1938 10.029 12.2741 10.0719L14.8585 11.4513C14.9375 11.4938 14.9875 11.5759 14.9888 11.6656L15.0009 12.7143C15.0022 12.8027 15.0509 12.8835 15.1281 12.9263L16.1665 13.5009C16.2446 13.5442 16.2938 13.6268 16.2938 13.7165V15.2799C14.7871 17.0737 12.5281 18.2143 10.0022 18.2143H10.0018Z" fill="white"/>
</svg>
