<svg width="20" height="20" viewBox="0 0 20 20" fill="none" xmlns="http://www.w3.org/2000/svg">
<g clip-path="url(#clip0_6014_159)">
<path d="M2.43365 0C3.77073 0 4.83897 1.0805 4.82483 2.40818C4.81775 3.73587 3.73536 4.81638 2.39121 4.81638C1.04706 4.81638 -0.00703907 3.73587 3.5401e-05 2.40818C0.00710987 1.0805 1.10365 0 2.43365 0Z" fill="white"/>
<path d="M4.46403 6.63136L4.36498 20H0.198121L0.304238 6.63136H4.46403Z" fill="white"/>
<path d="M15.0545 6.30649C19.2709 6.30649 20.0208 9.0678 19.9996 12.6695L19.943 20H15.7903L15.8398 13.5099C15.8539 11.9562 15.8327 9.95762 13.7033 9.95762C11.5739 9.95762 11.1989 11.6455 11.1848 13.3898L11.1353 20H6.96839L7.06743 6.63842H11.0574L11.0433 8.46751H11.107C11.6729 7.42231 13.0312 6.31356 15.0545 6.31356V6.30649Z" fill="white"/>
</g>
<defs>
<clipPath id="clip0_6014_159">
<rect width="20" height="20" fill="white"/>
</clipPath>
</defs>
</svg>
