<svg width="25" height="25" viewBox="0 0 25 25" fill="none" xmlns="http://www.w3.org/2000/svg">
<path d="M13.2234 0.000488262C13.6802 0.0654271 14.138 0.12646 14.5938 0.197258C14.8023 0.229483 15.0104 0.270986 15.2136 0.327136C15.7541 0.476544 16.0493 0.985313 15.9127 1.51459C15.7805 2.02726 15.2802 2.33243 14.7431 2.21427C11.7101 1.54633 8.91648 2.12052 6.39901 3.91049C3.90259 5.68532 2.38535 8.10564 2.00347 11.1578C1.40862 15.9081 3.81985 19.6569 7.32678 21.6593C9.16813 22.7105 11.1554 23.1793 13.2758 23.0401C14.4048 22.9659 15.4902 22.6954 16.5281 22.2423C16.7494 22.1456 16.9732 22.0841 17.215 22.1363C17.6395 22.2272 17.9431 22.5636 17.9969 22.9991C18.0464 23.3961 17.8172 23.8023 17.4182 23.983C16.6378 24.3365 15.8212 24.5791 14.9835 24.7559C14.4175 24.8755 13.8413 24.9116 13.2714 24.9995H11.7566C11.3385 24.9463 10.9184 24.9072 10.5028 24.8379C7.69838 24.3701 5.2989 23.1295 3.3474 21.0548C0.761872 18.3049 -0.262351 15.0062 0.0563725 11.2925C0.319282 8.23015 1.56333 5.60232 3.81789 3.47594C5.65288 1.74456 7.80022 0.631323 10.2893 0.191887C10.7275 0.114253 11.1706 0.0634741 11.6107 0.000488262C12.1483 0.000488262 12.6858 0.000488262 13.2234 0.000488262Z" fill="white"/>
<path d="M24.9995 6.05494C24.953 6.28491 24.9143 6.51684 24.858 6.74388C24.3772 8.68032 22.6133 9.9957 20.6201 9.90733C18.6774 9.82139 17.0251 8.30827 16.7318 6.34741C16.5844 5.36161 16.7871 4.42219 17.1269 3.50572C17.4716 2.57558 17.9367 1.71282 18.6476 1.00484C19.1607 0.493633 19.7589 0.133784 20.4923 0.0356431C20.5139 0.0327136 20.533 0.0122066 20.5531 0C20.7322 0 20.9114 0 21.0906 0C21.1117 0.01123 21.1318 0.029784 21.1543 0.0327136C21.9621 0.135249 22.6005 0.548318 23.1415 1.12837C23.8245 1.86028 24.2656 2.73427 24.6044 3.66685C24.8051 4.21956 24.8996 4.79571 25 5.37088V6.05445L24.9995 6.05494ZM20.84 7.9577C22.1148 7.95477 23.1484 6.82151 23.0245 5.53787C22.9153 4.40754 22.4884 3.39879 21.7619 2.52578C21.1366 1.77434 20.5589 1.76995 19.92 2.51553C19.2082 3.34655 18.79 4.32112 18.6588 5.40116C18.4899 6.78782 19.5088 7.96063 20.84 7.9577Z" fill="white"/>
<path d="M20.6505 24.9995C20.0032 24.731 19.8618 24.5156 19.8613 23.7959C19.8613 20.1852 19.8613 16.5741 19.8613 12.9634C19.8613 12.418 20.0806 12.0664 20.5021 11.9248C21.0936 11.7261 21.6762 12.065 21.7893 12.6802C21.8128 12.8066 21.8147 12.9389 21.8147 13.0683C21.8162 16.6302 21.8098 20.1926 21.8216 23.7544C21.8235 24.357 21.6434 24.7988 21.0407 25H20.65L20.6505 24.9995Z" fill="white"/>
<path d="M11.5064 8.44254C11.5064 7.51533 11.4971 6.58812 11.5093 5.6614C11.5191 4.94805 12.1801 4.50959 12.841 4.75909C13.2401 4.90948 13.4579 5.25907 13.4589 5.76931C13.4609 7.33907 13.4599 8.90834 13.4599 10.4781C13.4599 10.6002 13.4662 10.7222 13.4589 10.8438C13.4393 11.1636 13.5005 11.4307 13.7017 11.7168C14.3309 12.6103 13.6822 13.8886 12.5894 13.9575C12.4361 13.9672 12.3353 14.0224 12.2335 14.1244C11.2802 15.0814 10.3231 16.0336 9.36935 16.9901C9.10448 17.2557 8.79702 17.3929 8.42151 17.3118C8.0504 17.2317 7.79483 17.0052 7.68663 16.639C7.57892 16.2752 7.65726 15.9432 7.92555 15.6718C8.52628 15.0644 9.13288 14.4628 9.73703 13.8588C10.117 13.4795 10.4949 13.0976 10.8778 12.7212C10.9688 12.6313 11.0232 12.5435 11.0242 12.4063C11.0271 12.0772 11.1529 11.7842 11.3752 11.5454C11.481 11.4322 11.5079 11.3189 11.5074 11.1753C11.5035 10.2647 11.5054 9.35364 11.5054 8.44254H11.5064Z" fill="white"/>
</svg>
