<svg width="25" height="25" viewBox="0 0 25 25" fill="none" xmlns="http://www.w3.org/2000/svg">
<path d="M13.5057 0C13.7529 0.0777865 14.0121 0.0631098 14.2653 0.0914848C14.9345 0.166336 15.3598 0.615443 15.2872 1.19664C15.2151 1.77441 14.7096 2.12274 14.0544 2.03908C12.5987 1.85318 11.1574 1.94124 9.75798 2.36833C6.01329 3.51214 3.50788 5.9289 2.40492 9.62792C0.772121 15.1048 3.97702 20.8757 9.52515 22.5645C12.0559 23.335 14.5509 23.1877 16.9926 22.1804C17.2389 22.0787 17.4822 21.9803 17.7578 22.0356C18.1906 22.1227 18.5145 22.4637 18.5647 22.8873C18.6135 23.2983 18.3931 23.6946 17.9916 23.88C17.1956 24.2479 16.3628 24.5116 15.5056 24.698C8.87591 26.1373 2.33676 22.3066 0.472128 15.8905C0.24676 15.1146 0.10348 14.323 0.0437801 13.5177C0.0378101 13.438 0.014925 13.3597 0 13.281C0 12.7599 0 12.2394 0 11.7184C0.0144275 11.6479 0.0368151 11.5775 0.0417901 11.5065C0.0810926 10.9376 0.174125 10.3769 0.29253 9.81921C1.32683 4.94752 5.50883 0.998994 10.4958 0.192265C10.9674 0.115946 11.443 0.0635991 11.9166 0C12.4465 0 12.9758 0 13.5057 0Z" fill="white"/>
<path d="M21.0698 0C22.5503 0.310323 23.4209 1.31974 24.0874 2.54278C24.6417 3.55959 25.0035 4.64054 25 5.80684C24.9934 7.98848 23.2699 9.80059 21.0436 9.9856C18.8728 10.1662 16.8699 8.62886 16.4914 6.49212C16.3732 5.82608 16.4313 5.16696 16.5869 4.51473C16.7845 3.68737 17.1008 2.90391 17.5535 2.1767C18.2149 1.11401 19.0552 0.267401 20.3639 0H21.0698ZM18.4504 5.54438C18.4342 6.92085 19.3483 7.92385 20.5332 8.01956C21.7045 8.11379 22.7444 7.3032 22.949 6.13443C23.0607 5.49701 22.8959 4.89462 22.6802 4.30555C22.3886 3.51075 22.0046 2.76429 21.3129 2.22012C20.8758 1.87625 20.5357 1.86687 20.1138 2.22999C19.0386 3.15503 18.607 4.38399 18.4504 5.54438Z" fill="white"/>
<path d="M5.00001 12.4875C5.00096 8.85016 7.6452 5.71818 11.2356 5.10525C12.2287 4.93554 13.2166 4.97441 14.1979 5.19768C14.7486 5.32331 15.0852 5.80398 14.9812 6.31073C14.8692 6.85587 14.375 7.1768 13.8015 7.04549C11.0822 6.42402 8.63312 7.79826 7.5251 9.91248C5.70736 13.3815 7.99935 17.6635 11.8879 18.0683C12.1399 18.0944 12.3916 18.101 12.6441 18.1058C13.1986 18.1157 13.6197 18.5291 13.6154 19.0562C13.6111 19.5753 13.1981 19.9801 12.655 19.9967C9.24789 20.1015 6.06625 17.6915 5.23927 14.3812C5.08403 13.7593 4.99906 13.1288 5.00001 12.4875Z" fill="white"/>
<path d="M20.0007 18.5459C20.0007 16.7473 19.9986 14.9486 20.0018 13.1499C20.0029 12.4462 20.6966 11.9813 21.4122 12.1953C21.818 12.3169 22.1059 12.6477 22.1375 13.0322C22.1418 13.0877 22.1407 13.1437 22.1407 13.1993C22.1407 16.7808 22.1391 20.3623 22.1429 23.9433C22.1429 24.3723 21.9713 24.706 21.5333 24.8994C20.8161 25.2158 20.005 24.749 20.0029 24.0137C19.9975 22.1911 20.0007 20.3685 20.0007 18.5459Z" fill="white"/>
</svg>
