<svg width="28" height="28" viewBox="0 0 28 28" fill="none" xmlns="http://www.w3.org/2000/svg">
<path fill-rule="evenodd" clip-rule="evenodd" d="M0.734651 14C0.734651 13.1822 1.39757 12.5193 2.21532 12.5193L12.5801 12.5193L12.5801 2.15472C12.5801 1.33697 13.243 0.674047 14.0608 0.674047C14.8785 0.674047 15.5414 1.33697 15.5414 2.15472L15.5414 12.5193H25.906C26.7238 12.5193 27.3867 13.1823 27.3867 14C27.3867 14.8178 26.7238 15.4807 25.906 15.4807L15.5414 15.4807L15.5414 25.8454C15.5414 26.6632 14.8785 27.3261 14.0608 27.3261C13.243 27.3261 12.5801 26.6632 12.5801 25.8454V15.4807L2.21532 15.4807C1.39757 15.4807 0.734651 14.8178 0.734651 14Z" fill="white"/>
</svg>
