<svg width="64" height="15" viewBox="0 0 64 15" fill="none" xmlns="http://www.w3.org/2000/svg">
<path d="M48.1311 15C44.3236 15.0113 41.7258 10.735 41.7258 10.735C41.0757 9.66463 39.5015 8.85078 38.2261 8.92559C38.2261 8.92559 6.27329 10.7649 4.45608 10.7705C1.9942 10.7777 0.00544565 9.38087 1.21187e-05 7.64209C-0.00542141 5.90633 1.97518 4.49324 4.43629 4.48607C6.25349 4.48078 38.2172 6.13493 38.2172 6.13493C39.493 6.19991 41.0621 5.37662 41.7033 4.30282C41.7033 4.30282 44.2739 0.0114146 48.0841 7.97384e-05C52.3376 -0.012388 63.9813 1.54768 64 7.44827C64.0182 13.3462 52.3845 14.9781 48.1311 14.9996L48.1311 15Z" fill="#FFAA00"/>
</svg>
