<svg width="39" height="39" viewBox="0 0 39 39" fill="none" xmlns="http://www.w3.org/2000/svg">
<path d="M31.3945 15.9297C29.5751 17.7603 26.2243 16.8999 26.2243 16.8999C25.3857 16.6845 24.2304 17.0383 23.6559 17.6864C23.6559 17.6864 9.24584 33.9078 8.37761 34.7816C7.20111 35.9652 5.56007 36.2306 4.70132 35.3771C3.84407 34.525 4.09763 32.8799 5.27376 31.6967C6.14218 30.8231 22.2776 16.3167 22.2776 16.3167C22.9211 15.7371 23.2678 14.5796 23.0464 13.7436C23.0464 13.7436 22.1656 10.3984 23.9863 8.56653C26.019 6.52161 32.3682 1.70865 35.2825 4.60506C38.1953 7.50036 33.4225 13.8801 31.3943 15.9295L31.3945 15.9297Z" fill="white"/>
<path d="M8.543 15.9297C10.3624 17.7603 13.7132 16.8999 13.7132 16.8999C14.5518 16.6845 15.7071 17.0383 16.2816 17.6864C16.2816 17.6864 30.6917 33.9078 31.5599 34.7816C32.7364 35.9652 34.3774 36.2306 35.2362 35.3771C36.0934 34.525 35.8399 32.8799 34.6637 31.6967C33.7953 30.8231 17.6599 16.3167 17.6599 16.3167C17.0164 15.7371 16.6697 14.5796 16.8911 13.7436C16.8911 13.7436 17.7719 10.3984 15.9512 8.56653C13.9185 6.52161 7.56928 1.70865 4.65501 4.60506C1.74223 7.50036 6.51501 13.8801 8.54319 15.9295L8.543 15.9297Z" fill="white"/>
</svg>
