<svg width="20" height="20" viewBox="0 0 20 20" fill="none" xmlns="http://www.w3.org/2000/svg">
<g clip-path="url(#clip0_6014_163)">
<path fill-rule="evenodd" clip-rule="evenodd" d="M18.9554 4.02847C19.2657 4.34077 19.4886 4.7291 19.6017 5.15459C20.0198 6.72504 20.0198 10 20.0198 10C20.0198 10 20.0198 13.275 19.6017 14.8455C19.4886 15.271 19.2657 15.6593 18.9554 15.9716C18.6451 16.2839 18.2582 16.5092 17.8335 16.625C16.2698 17.0455 10.0198 17.0455 10.0198 17.0455C10.0198 17.0455 3.76984 17.0455 2.2062 16.625C1.78144 16.5092 1.39455 16.2839 1.08424 15.9716C0.773933 15.6593 0.551091 15.271 0.438018 14.8455C0.0198365 13.275 0.0198364 10 0.0198364 10C0.0198364 10 0.0198365 6.72504 0.438018 5.15459C0.551091 4.7291 0.773933 4.34077 1.08424 4.02847C1.39455 3.71617 1.78144 3.49084 2.2062 3.37504C3.76984 2.95459 10.0198 2.95459 10.0198 2.95459C10.0198 2.95459 16.2698 2.95459 17.8335 3.37504C18.2582 3.49084 18.6451 3.71617 18.9554 4.02847ZM13.2017 10.0001L7.9744 7.02621V12.9739L13.2017 10.0001Z" fill="white"/>
</g>
<defs>
<clipPath id="clip0_6014_163">
<rect width="20" height="20" fill="white"/>
</clipPath>
</defs>
</svg>
